# Blender 4.0.0
# www.blender.org
mtllib Goal.mtl
o Door_Vert_01
v 2.986803 33.636433 -25.074789
v 2.986803 33.636433 26.184423
v 2.986803 -0.000008 -25.079535
v 2.986803 -0.000000 26.186541
v 2.986803 33.636463 0.526681
v -4.513271 33.636433 -25.074802
v -4.513249 33.636433 26.184423
v -4.513271 -0.000009 -25.079533
v -4.513248 -0.000000 26.186541
v -4.513259 33.636463 0.526686
v 2.986804 31.006237 -10.363250
v 2.986804 28.693657 -10.363249
v 2.986804 27.409420 -8.200011
v 2.986803 7.402363 -8.200008
v 2.986803 6.959649 -8.155632
v 2.986803 6.518686 -8.054070
v 2.986803 6.081221 -7.838140
v 2.986803 5.649004 -7.450650
v 2.986803 5.310802 -6.984613
v 2.986803 5.121195 -6.561601
v 2.986803 5.030650 -6.167271
v 2.986803 4.987747 -5.787282
v 3.349267 31.005901 -9.850733
v 3.349267 28.985687 -9.850732
v 3.349267 27.699900 -7.688498
v 3.349266 7.427933 -7.688494
v 3.349266 7.042892 -7.649899
v 3.349266 6.691610 -7.568994
v 3.349266 6.370482 -7.410486
v 3.349266 6.031006 -7.106142
v 3.349266 5.755904 -6.727057
v 3.349266 5.608500 -6.398196
v 3.349266 5.535680 -6.081064
v 3.349266 5.499260 -5.758498
v 2.986804 31.006239 11.431629
v 2.986803 28.693659 11.431629
v 2.986803 27.409422 9.268389
v 2.986803 7.402363 9.268391
v 2.986803 6.959650 9.224016
v 2.986803 6.518686 9.122456
v 2.986803 6.081222 8.906525
v 2.986803 5.649004 8.519032
v 2.986803 5.310802 8.052998
v 2.986803 5.121196 7.629983
v 2.986803 5.030651 7.235653
v 2.986803 4.987748 6.855667
v 3.349267 31.005905 10.919111
v 3.349267 28.985689 10.919111
v 3.349267 27.699902 8.756874
v 3.349266 7.427934 8.756878
v 3.349266 7.042892 8.718283
v 3.349266 6.691610 8.637376
v 3.349266 6.370482 8.478868
v 3.349266 6.031006 8.174524
v 3.349266 5.755904 7.795439
v 3.349266 5.608500 7.466578
v 3.349266 5.535681 7.149448
v 3.349266 5.499262 6.826880
v -4.513260 31.006239 11.431629
v -4.513259 28.693659 11.431629
v -4.513259 27.409422 9.268389
v -4.513259 7.402363 9.268391
v -4.513259 6.959650 9.224014
v -4.513259 6.518686 9.122453
v -4.513259 6.081222 8.906522
v -4.513259 5.649004 8.519032
v -4.513259 5.310802 8.052996
v -4.513259 5.121196 7.629983
v -4.513259 5.030651 7.235653
v -4.513259 4.987748 6.855664
v -4.875722 31.005905 10.919115
v -4.875722 28.985689 10.919115
v -4.875722 27.699902 8.756871
v -4.875722 7.427934 8.756876
v -4.875722 7.042892 8.718281
v -4.875722 6.691610 8.637376
v -4.875722 6.370482 8.478866
v -4.875722 6.031006 8.174522
v -4.875722 5.755904 7.795439
v -4.875721 5.608500 7.466578
v -4.875721 5.535681 7.149446
v -4.875721 5.499262 6.826880
v -4.513259 31.006237 -10.363249
v -4.513259 28.693657 -10.363249
v -4.513259 27.409420 -8.200011
v -4.513258 7.402363 -8.200008
v -4.513258 6.959649 -8.155634
v -4.513258 6.518686 -8.054073
v -4.513258 6.081221 -7.838142
v -4.513258 5.649004 -7.450650
v -4.513258 5.310802 -6.984615
v -4.513258 5.121195 -6.561601
v -4.513258 5.030650 -6.167271
v -4.513258 4.987747 -5.787284
v -4.875722 31.005901 -9.850732
v -4.875722 28.985687 -9.850732
v -4.875722 27.699900 -7.688501
v -4.875721 7.427933 -7.688496
v -4.875721 7.042892 -7.649901
v -4.875721 6.691610 -7.568994
v -4.875721 6.370482 -7.410486
v -4.875721 6.031006 -7.106142
v -4.875721 5.755904 -6.727057
v -4.875721 5.608500 -6.398196
v -4.875721 5.535680 -6.081066
v -4.875721 5.499260 -5.758498
vn -0.0000 1.0000 -0.0000
vn -0.0000 0.0001 1.0000
vn -0.0000 0.0001 -1.0000
vn 1.0000 -0.0000 -0.0000
vn -1.0000 -0.0000 -0.0000
vn 0.8165 -0.0000 -0.5774
vn 0.8162 -0.4967 -0.2951
vn 0.8158 -0.4971 -0.2955
vn 0.8163 -0.4966 -0.2950
vn 0.8159 -0.0000 -0.5782
vn 0.8163 -0.0288 -0.5770
vn 0.8165 -0.0938 -0.5697
vn 0.8178 -0.1933 -0.5422
vn 0.8184 -0.3219 -0.4759
vn 0.8174 -0.4277 -0.3858
vn 0.8175 -0.4277 -0.3858
vn 0.8174 -0.4987 -0.2885
vn 0.8174 -0.4986 -0.2885
vn 0.8172 -0.5464 -0.1832
vn 0.8164 -0.5693 -0.0972
vn 0.8159 -0.5745 -0.0649
vn 0.8165 -0.0000 0.5774
vn 0.8161 -0.4968 0.2952
vn 0.8162 -0.4967 0.2951
vn 0.8159 -0.0000 0.5782
vn 0.8163 -0.0288 0.5770
vn 0.8165 -0.0938 0.5697
vn 0.8178 -0.1933 0.5421
vn 0.8184 -0.3219 0.4759
vn 0.8175 -0.4277 0.3858
vn 0.8174 -0.4986 0.2885
vn 0.8172 -0.5464 0.1832
vn 0.8174 -0.4987 0.2885
vn 0.8164 -0.5693 0.0972
vn 0.8159 -0.5745 0.0649
vn 0.8159 -0.5782 -0.0000
vn 0.0009 1.0000 -0.0000
vn -0.8165 -0.0000 0.5774
vn -0.8163 -0.4967 0.2950
vn -0.8160 -0.4969 0.2953
vn -0.8162 -0.4967 0.2951
vn -0.8159 -0.0000 0.5782
vn -0.8163 -0.0288 0.5770
vn -0.8165 -0.0938 0.5697
vn -0.8178 -0.1933 0.5421
vn -0.8184 -0.3219 0.4759
vn -0.8175 -0.4277 0.3858
vn -0.8174 -0.4986 0.2885
vn -0.8172 -0.5464 0.1832
vn -0.8164 -0.5693 0.0972
vn -0.8159 -0.5745 0.0649
vn -0.8165 -0.0000 -0.5774
vn -0.8160 -0.4969 -0.2953
vn -0.8162 -0.4967 -0.2951
vn -0.8159 -0.0000 -0.5782
vn -0.8163 -0.0288 -0.5770
vn -0.8165 -0.0938 -0.5697
vn -0.8178 -0.1933 -0.5421
vn -0.8184 -0.3219 -0.4759
vn -0.8175 -0.4277 -0.3858
vn -0.8174 -0.4987 -0.2885
vn -0.8172 -0.5464 -0.1832
vn -0.8174 -0.4986 -0.2885
vn -0.8164 -0.5693 -0.0972
vn -0.8159 -0.5745 -0.0649
vn -0.8159 -0.5782 -0.0000
vn -0.0009 1.0000 -0.0000
vn 0.8161 -0.4968 -0.2952
vn -0.8161 -0.4968 -0.2952
vt 0.261162 0.877476
vt 0.007867 0.927637
vt 0.007867 0.877476
vt 0.007867 0.877478
vt 0.261162 0.927634
vt 0.261162 0.877478
vt 0.261162 0.877478
vt 0.007867 0.927634
vt 0.007867 0.877478
vt 0.007867 0.927637
vt 0.261162 0.877476
vt 0.007867 0.877476
vt 0.368950 0.016091
vt 0.981439 0.417989
vt 0.368975 0.417989
vt 0.368950 0.016091
vt 0.981439 0.417989
vt 0.981496 0.016091
vt 0.805660 0.386563
vt 0.799537 0.362421
vt 0.805660 0.358931
vt 0.779813 0.343587
vt 0.773701 0.104842
vt 0.779813 0.104537
vt 0.773240 0.100242
vt 0.779283 0.099247
vt 0.772274 0.096045
vt 0.778069 0.093978
vt 0.770380 0.092208
vt 0.775489 0.088751
vt 0.770860 0.083587
vt 0.766743 0.088151
vt 0.765291 0.079546
vt 0.762214 0.084864
vt 0.760237 0.077281
vt 0.758284 0.083103
vt 0.755525 0.076199
vt 0.754495 0.082233
vt 0.750985 0.075686
vt 0.545247 0.386563
vt 0.551371 0.362421
vt 0.551371 0.386559
vt 0.571094 0.343587
vt 0.545247 0.358931
vt 0.577206 0.104842
vt 0.577206 0.347058
vt 0.571094 0.104537
vt 0.577667 0.100242
vt 0.571625 0.099247
vt 0.578634 0.096045
vt 0.572838 0.093978
vt 0.580528 0.092208
vt 0.580048 0.083587
vt 0.575418 0.088751
vt 0.585616 0.079546
vt 0.584164 0.088151
vt 0.590671 0.077281
vt 0.588694 0.084864
vt 0.595382 0.076199
vt 0.592623 0.083103
vt 0.599922 0.075686
vt 0.596412 0.082233
vt 0.600266 0.081798
vt 0.571094 0.104537
vt 0.577667 0.100242
vt 0.578634 0.096045
vt 0.580528 0.092208
vt 0.580048 0.083587
vt 0.590671 0.077281
vt 0.592623 0.083103
vt 0.595382 0.076199
vt 0.799537 0.386559
vt 0.773702 0.104842
vt 0.773702 0.347058
vt 0.779813 0.104537
vt 0.773240 0.100242
vt 0.772274 0.096045
vt 0.770380 0.092208
vt 0.770860 0.083587
vt 0.760237 0.077281
vt 0.755525 0.076199
vt 0.758284 0.083103
vt 0.754495 0.082233
vt 0.750641 0.081798
vt 0.551371 0.386559
vt 0.261162 0.927637
vt 0.007867 0.927634
vt 0.261162 0.927634
vt 0.261162 0.927637
vt 0.981496 0.016091
vt 0.799537 0.386559
vt 0.773701 0.347058
vt 0.750641 0.081798
vt 0.600266 0.081798
s 1
usemtl マテリアル
f 10/1/1 1/2/1 6/3/1
f 9/4/2 2/5/2 7/6/2
f 6/7/3 3/8/3 8/9/3
f 2/10/1 10/11/1 7/12/1
f 4/13/4 1/14/4 2/15/4
f 9/16/5 6/17/5 8/18/5
f 11/19/6 24/20/6 12/21/6
f 24/20/7 13/22/8 12/21/9
f 13/22/10 26/23/11 14/24/11
f 14/24/11 27/25/12 15/26/12
f 15/26/12 28/27/13 16/28/13
f 16/28/13 29/29/14 17/30/14
f 29/29/14 18/31/15 17/30/14
f 30/32/16 19/33/17 18/31/15
f 31/34/18 20/35/19 19/33/17
f 32/36/19 21/37/20 20/35/19
f 33/38/20 22/39/21 21/37/20
f 35/40/22 48/41/22 47/42/22
f 37/43/23 48/41/24 36/44/24
f 37/43/25 50/45/26 49/46/25
f 38/47/26 51/48/27 50/45/26
f 39/49/27 52/50/28 51/48/27
f 40/51/28 53/52/29 52/50/28
f 42/53/30 53/52/29 41/54/29
f 43/55/31 54/56/30 42/53/30
f 44/57/32 55/58/33 43/55/31
f 45/59/34 56/60/32 44/57/32
f 46/61/35 57/62/34 45/59/34
f 22/39/36 58/63/36 46/61/36
f 47/42/37 11/19/37 35/40/37
f 33/38/4 31/34/4 27/25/4
f 59/40/38 72/41/38 60/44/38
f 72/41/39 61/43/40 60/44/41
f 61/43/42 74/45/43 62/64/43
f 62/64/43 75/65/44 63/49/44
f 63/49/44 76/66/45 64/51/45
f 64/51/45 77/67/46 65/54/46
f 77/67/46 66/68/47 65/54/46
f 78/56/47 67/55/48 66/68/47
f 79/58/48 68/69/49 67/55/48
f 80/70/49 69/71/50 68/69/49
f 81/62/50 70/61/51 69/71/50
f 83/19/52 96/20/52 95/72/52
f 85/22/53 96/20/54 84/21/54
f 85/22/55 98/73/56 97/74/55
f 86/75/56 99/76/57 98/73/56
f 87/26/57 100/77/58 99/76/57
f 88/28/58 101/78/59 100/77/58
f 90/79/60 101/78/59 89/30/59
f 91/33/61 102/32/60 90/79/60
f 92/80/62 103/34/63 91/33/61
f 93/81/64 104/82/62 92/80/62
f 94/39/65 105/83/64 93/81/64
f 70/61/66 106/84/66 94/39/66
f 71/85/67 83/19/67 95/72/67
f 81/62/5 79/58/5 75/65/5
f 10/1/1 5/86/1 1/2/1
f 9/4/2 4/87/2 2/5/2
f 6/7/3 1/88/3 3/8/3
f 2/10/1 5/89/1 10/11/1
f 4/13/4 3/90/4 1/14/4
f 9/16/5 7/15/5 6/17/5
f 11/19/6 23/91/6 24/20/6
f 24/20/7 25/92/68 13/22/8
f 13/22/10 25/92/10 26/23/11
f 14/24/11 26/23/11 27/25/12
f 15/26/12 27/25/12 28/27/13
f 16/28/13 28/27/13 29/29/14
f 29/29/14 30/32/16 18/31/15
f 30/32/16 31/34/18 19/33/17
f 31/34/18 32/36/19 20/35/19
f 32/36/19 33/38/20 21/37/20
f 33/38/20 34/93/21 22/39/21
f 35/40/22 36/44/22 48/41/22
f 37/43/23 49/46/23 48/41/24
f 37/43/25 38/47/26 50/45/26
f 38/47/26 39/49/27 51/48/27
f 39/49/27 40/51/28 52/50/28
f 40/51/28 41/54/29 53/52/29
f 42/53/30 54/56/30 53/52/29
f 43/55/31 55/58/33 54/56/30
f 44/57/32 56/60/32 55/58/33
f 45/59/34 57/62/34 56/60/32
f 46/61/35 58/63/35 57/62/34
f 22/39/36 34/93/36 58/63/36
f 47/42/37 23/91/37 11/19/37
f 25/92/4 24/20/4 23/91/4
f 23/91/4 47/42/4 49/46/4
f 47/42/4 48/41/4 49/46/4
f 49/46/4 50/45/4 26/23/4
f 50/45/4 51/48/4 57/62/4
f 26/23/4 58/63/4 34/93/4
f 27/25/4 26/23/4 33/38/4
f 26/23/4 25/92/4 49/46/4
f 25/92/4 23/91/4 49/46/4
f 58/63/4 26/23/4 50/45/4
f 51/48/4 52/50/4 54/56/4
f 52/50/4 53/52/4 54/56/4
f 54/56/4 55/58/4 51/48/4
f 55/58/4 56/60/4 57/62/4
f 57/62/4 58/63/4 50/45/4
f 34/93/4 33/38/4 26/23/4
f 33/38/4 32/36/4 31/34/4
f 31/34/4 30/32/4 27/25/4
f 30/32/4 29/29/4 28/27/4
f 27/25/4 30/32/4 28/27/4
f 57/62/4 51/48/4 55/58/4
f 59/40/38 71/85/38 72/41/38
f 72/41/39 73/46/40 61/43/40
f 61/43/42 73/46/42 74/45/43
f 62/64/43 74/45/43 75/65/44
f 63/49/44 75/65/44 76/66/45
f 64/51/45 76/66/45 77/67/46
f 77/67/46 78/56/47 66/68/47
f 78/56/47 79/58/48 67/55/48
f 79/58/48 80/70/49 68/69/49
f 80/70/49 81/62/50 69/71/50
f 81/62/50 82/94/51 70/61/51
f 83/19/52 84/21/52 96/20/52
f 85/22/53 97/74/69 96/20/54
f 85/22/55 86/75/56 98/73/56
f 86/75/56 87/26/57 99/76/57
f 87/26/57 88/28/58 100/77/58
f 88/28/58 89/30/59 101/78/59
f 90/79/60 102/32/60 101/78/59
f 91/33/61 103/34/63 102/32/60
f 92/80/62 104/82/62 103/34/63
f 93/81/64 105/83/64 104/82/62
f 94/39/65 106/84/65 105/83/64
f 70/61/66 82/94/66 106/84/66
f 71/85/67 59/40/67 83/19/67
f 73/46/5 72/41/5 71/85/5
f 71/85/5 95/72/5 97/74/5
f 95/72/5 96/20/5 97/74/5
f 97/74/5 98/73/5 74/45/5
f 98/73/5 99/76/5 105/83/5
f 74/45/5 106/84/5 82/94/5
f 75/65/5 74/45/5 81/62/5
f 74/45/5 73/46/5 97/74/5
f 73/46/5 71/85/5 97/74/5
f 106/84/5 74/45/5 98/73/5
f 99/76/5 100/77/5 102/32/5
f 100/77/5 101/78/5 102/32/5
f 102/32/5 103/34/5 99/76/5
f 103/34/5 104/82/5 105/83/5
f 105/83/5 106/84/5 98/73/5
f 82/94/5 81/62/5 74/45/5
f 81/62/5 80/70/5 79/58/5
f 79/58/5 78/56/5 75/65/5
f 78/56/5 77/67/5 76/66/5
f 75/65/5 78/56/5 76/66/5
f 105/83/5 99/76/5 103/34/5
