# Blender 4.0.0
# www.blender.org
mtllib Stage_Col.mtl
o 平面
v 8.120778 -0.000016 13.973372
v 229.412994 -0.000016 13.973372
v 8.120778 -0.000048 -196.541855
v 229.412994 -0.000048 -196.541855
vn -0.0000 1.0000 -0.0000
vt 1.000000 0.000000
vt 0.000000 1.000000
vt 0.000000 0.000000
vt 1.000000 1.000000
s 0
usemtl マテリアル.001
f 2/1/1 3/2/1 1/3/1
f 2/1/1 4/4/1 3/2/1
o 平面.001
v -209.833664 0.000001 101.482254
v -148.735336 0.000001 101.482254
v -209.833664 -0.000021 -47.391396
v -148.735336 -0.000021 -47.391396
vn -0.0000 1.0000 -0.0000
vt 1.000000 0.000000
vt 0.000000 1.000000
vt 0.000000 0.000000
vt 1.000000 1.000000
s 0
usemtl マテリアル.001
f 6/5/2 7/6/2 5/7/2
f 6/5/2 8/8/2 7/6/2
o 平面.002
v -21.818129 0.000015 190.702255
v 96.871811 0.000015 190.702255
v -21.818129 0.000010 155.037460
v 96.871811 0.000010 155.037460
vn -0.0000 1.0000 -0.0000
vt 1.000000 0.000000
vt 0.000000 1.000000
vt 0.000000 0.000000
vt 1.000000 1.000000
s 0
usemtl マテリアル.001
f 10/9/3 11/10/3 9/11/3
f 10/9/3 12/12/3 11/10/3
o 平面.003
v 63.269657 0.000010 159.113403
v 96.305389 0.000010 159.113403
v 63.269657 0.000006 129.029251
v 96.305389 0.000006 129.029251
vn -0.0000 1.0000 -0.0000
vt 1.000000 0.000000
vt 0.000000 1.000000
vt 0.000000 0.000000
vt 1.000000 1.000000
s 0
usemtl マテリアル.001
f 14/13/4 15/14/4 13/15/4
f 14/13/4 16/16/4 15/14/4
o 平面.004
v -22.305565 -24.499990 160.931686
v 101.166519 -24.499990 160.931686
v -22.305565 -24.500006 39.737957
v 101.166519 -24.500006 39.737957
vn -0.0000 1.0000 -0.0000
vt 1.000000 0.000000
vt 0.000000 1.000000
vt 0.000000 0.000000
vt 1.000000 1.000000
s 0
usemtl マテリアル.001
f 18/17/5 19/18/5 17/19/5
f 18/17/5 20/20/5 19/18/5
o 平面.005
v 101.229378 -24.499990 160.317535
v 123.137047 -24.499990 160.317535
v 101.229378 -24.499996 130.253571
v 123.137047 -24.499996 130.253571
vn -0.0000 1.0000 -0.0000
vt 1.000000 0.000000
vt 0.000000 1.000000
vt 0.000000 0.000000
vt 1.000000 1.000000
s 0
usemtl マテリアル.001
f 22/21/6 23/22/6 21/23/6
f 22/21/6 24/24/6 23/22/6
o 平面.006
v 101.115433 -24.500002 75.420868
v 122.715904 -24.500002 75.420868
v 101.115433 -24.500006 39.825069
v 122.715904 -24.500006 39.825069
vn -0.0000 1.0000 -0.0000
vt 1.000000 0.000000
vt 0.000000 1.000000
vt 0.000000 0.000000
vt 1.000000 1.000000
s 0
usemtl マテリアル.001
f 26/25/7 27/26/7 25/27/7
f 26/25/7 28/28/7 27/26/7
o 平面.007
v 16.991343 -49.000008 41.277840
v 125.897003 -49.000008 41.277840
v 16.991343 -49.000031 -129.096420
v 125.897003 -49.000031 -129.096420
vn -0.0000 1.0000 -0.0000
vt 1.000000 0.000000
vt 0.000000 1.000000
vt 0.000000 0.000000
vt 1.000000 1.000000
s 0
usemtl マテリアル.001
f 30/29/8 31/30/8 29/31/8
f 30/29/8 32/32/8 31/30/8
o 平面.008
v 8.131272 0.419392 154.994141
v 69.833435 -24.509901 154.994141
v 8.131272 0.419389 134.635605
v 69.833435 -24.509903 134.635605
vn 0.3746 0.9272 -0.0000
vt 1.000000 0.000000
vt 0.000000 1.000000
vt 0.000000 0.000000
vt 1.000000 1.000000
s 0
usemtl マテリアル.001
f 34/33/9 35/34/9 33/35/9
f 34/33/9 36/36/9 35/34/9
o 平面.009
v 121.290100 -24.189722 129.900864
v 121.290100 -49.119022 68.198700
v 100.931572 -24.189722 129.900864
v 100.931572 -49.119022 68.198700
vn -0.0000 0.9272 -0.3746
vt 1.000000 0.000000
vt 0.000000 1.000000
vt 0.000000 0.000000
vt 1.000000 1.000000
s 0
usemtl マテリアル.001
f 38/37/10 39/38/10 37/39/10
f 38/37/10 40/40/10 39/38/10
o 平面.010
v -22.817595 -48.999989 162.683914
v 126.466103 -48.999989 162.683914
v -22.817595 -49.000008 40.974228
v 126.466103 -49.000008 40.974228
vn -0.0000 1.0000 -0.0000
vt 1.000000 0.000000
vt 0.000000 1.000000
vt 0.000000 0.000000
vt 1.000000 1.000000
s 0
usemtl マテリアル.001
f 42/41/11 43/42/11 41/43/11
f 42/41/11 44/44/11 43/42/11
o 平面.011
v 96.506012 19.504925 169.454361
v 96.506012 -0.095075 169.454376
v 96.506012 19.504917 119.747276
v 96.506012 -0.095082 119.747276
vn 1.0000 -0.0000 -0.0000
vt 1.000000 0.000000
vt 0.000000 1.000000
vt 0.000000 0.000000
vt 1.000000 1.000000
s 0
usemtl WallPaper.001
f 46/45/12 47/46/12 45/47/12
f 46/45/12 48/48/12 47/46/12
o 平面.012
v 96.668678 19.504917 120.055069
v 96.668678 -0.095081 120.055069
v 77.324661 19.504915 100.711044
v 77.324661 -0.095086 100.711044
vn 0.7071 -0.0000 -0.7071
vt 1.000000 0.000000
vt 0.000000 1.000000
vt 0.000000 0.000000
vt 1.000000 1.000000
s 0
usemtl WallPaper.001
f 50/49/13 51/50/13 49/51/13
f 50/49/13 52/52/13 51/50/13
o 平面.013
v -21.415396 19.504915 100.806129
v -21.415396 -0.095083 100.806129
v 77.456657 19.504911 100.806129
v 77.456657 -0.095087 100.806129
vn -0.0000 -0.0000 1.0000
vt 1.000000 0.000000
vt 0.000000 1.000000
vt 0.000000 0.000000
vt 1.000000 1.000000
s 0
usemtl WallPaper.001
f 54/53/14 55/54/14 53/55/14
f 54/53/14 56/56/14 55/54/14
o 平面.014
v -21.658655 19.504929 188.653244
v -21.658655 -0.095070 188.653244
v 77.202888 19.504925 188.653244
v 77.202888 -0.095073 188.653244
vn -0.0000 -0.0000 1.0000
vt 1.000000 0.000000
vt 0.000000 1.000000
vt 0.000000 0.000000
vt 1.000000 1.000000
s 0
usemtl WallPaper.001
f 58/57/15 59/58/15 57/59/15
f 58/57/15 60/60/15 59/58/15
o 平面.015
v 76.868355 19.504927 189.091385
v 76.868355 -0.095073 189.091385
v 97.141701 19.504925 168.818039
v 97.141716 -0.095074 168.818039
vn 0.7071 -0.0000 0.7071
vt 1.000000 0.000000
vt 0.000000 1.000000
vt 0.000000 0.000000
vt 1.000000 1.000000
s 0
usemtl WallPaper.001
f 62/61/16 63/62/16 61/63/16
f 62/61/16 64/64/16 63/62/16
o 平面.016
v -21.424173 19.504919 129.690933
v -21.424171 -0.095081 129.690933
v -21.424173 19.504915 100.605263
v -21.424171 -0.095085 100.605263
vn 1.0000 -0.0000 -0.0000
vt 1.000000 0.000000
vt 0.000000 1.000000
vt 0.000000 0.000000
vt 1.000000 1.000000
s 0
usemtl WallPaper.001
f 66/65/17 67/66/17 65/67/17
f 66/65/17 68/68/17 67/66/17
o 平面.017
v -21.424173 19.504927 188.615097
v -21.424171 -0.095072 188.615097
v -21.424173 19.504923 159.668396
v -21.424171 -0.095076 159.668396
vn 1.0000 -0.0000 -0.0000
vt 1.000000 0.000000
vt 0.000000 1.000000
vt 0.000000 0.000000
vt 1.000000 1.000000
s 0
usemtl WallPaper.001
f 70/69/18 71/70/18 69/71/18
f 70/69/18 72/72/18 71/70/18
o 平面.018
v -119.150948 19.504921 129.606140
v -119.150948 -0.095079 129.606140
v -21.662392 19.504917 129.606140
v -21.662392 -0.095082 129.606140
vn -0.0000 -0.0000 1.0000
vt 1.000000 0.000000
vt 0.000000 1.000000
vt 0.000000 0.000000
vt 1.000000 1.000000
s 0
usemtl WallPaper.001
f 74/73/19 75/74/19 73/75/19
f 74/73/19 76/76/19 75/74/19
o 平面.019
v -149.459900 19.504927 159.677628
v -149.459900 -0.095073 159.677628
v -21.621746 19.504919 159.677628
v -21.621746 -0.095079 159.677628
vn -0.0000 -0.0000 1.0000
vt 1.000000 0.000000
vt 0.000000 1.000000
vt 0.000000 0.000000
vt 1.000000 1.000000
s 0
usemtl WallPaper.001
f 78/77/20 79/78/20 77/79/20
f 78/77/20 80/80/20 79/78/20
o 平面.020
v 9.674200 19.504919 134.604385
v 9.674200 -0.095079 134.604385
v 63.414577 19.504919 134.604385
v 63.414577 -0.095081 134.604385
vn -0.0000 -0.0000 1.0000
vt 1.000000 0.000000
vt 0.000000 1.000000
vt 0.000000 0.000000
vt 1.000000 1.000000
s 0
usemtl WallPaper.001
f 82/81/21 83/82/21 81/83/21
f 82/81/21 84/84/21 83/82/21
o 平面.021
v 9.595947 19.504923 155.098221
v 9.595947 -0.095076 155.098221
v 63.336327 19.504923 155.098221
v 63.336327 -0.095078 155.098236
vn -0.0000 -0.0000 1.0000
vt 1.000000 0.000000
vt 0.000000 1.000000
vt 0.000000 0.000000
vt 1.000000 1.000000
s 0
usemtl WallPaper.001
f 86/85/22 87/86/22 85/87/22
f 86/85/22 88/88/22 87/86/22
o 平面.022
v 63.365059 19.504923 155.170944
v 63.365059 -0.095077 155.170944
v 63.365059 19.504919 134.156952
v 63.365059 -0.095080 134.156952
vn 1.0000 -0.0000 -0.0000
vt 1.000000 0.000000
vt 0.000000 1.000000
vt 0.000000 0.000000
vt 1.000000 1.000000
s 0
usemtl WallPaper.001
f 90/89/23 91/90/23 89/91/23
f 90/89/23 92/92/23 91/90/23
o 平面.023
v -119.211472 19.504919 129.500595
v -119.211472 -0.095081 129.500595
v -119.211472 19.504889 -75.287254
v -119.211472 -0.095112 -75.287254
vn 1.0000 -0.0000 -0.0000
vt 1.000000 0.000000
vt 0.000000 1.000000
vt 0.000000 0.000000
vt 1.000000 1.000000
s 0
usemtl WallPaper.001
f 94/93/24 95/94/24 93/95/24
f 94/93/24 96/96/24 95/94/24
o 平面.024
v -119.265823 19.504892 -75.594185
v -119.265823 -0.095109 -75.594185
v 8.465932 19.504883 -75.594185
v 8.465932 -0.095114 -75.594185
vn -0.0000 -0.0000 1.0000
vt 1.000000 0.000000
vt 0.000000 1.000000
vt 0.000000 0.000000
vt 1.000000 1.000000
s 0
usemtl WallPaper.001
f 98/97/25 99/98/25 97/99/25
f 98/97/25 100/100/25 99/98/25
o 平面.025
v -148.695419 19.504889 -105.645416
v -148.695419 -0.095112 -105.645416
v 8.122082 19.504881 -105.645416
v 8.122082 -0.095120 -105.645416
vn -0.0000 -0.0000 1.0000
vt 1.000000 0.000000
vt 0.000000 1.000000
vt 0.000000 0.000000
vt 1.000000 1.000000
s 0
usemtl WallPaper.001
f 102/101/26 103/102/26 101/103/26
f 102/101/26 104/104/26 103/102/26
o 平面.026
v -207.938019 19.504892 -46.560146
v -207.938019 -0.095106 -46.560146
v -148.608948 19.504892 -46.560146
v -148.608948 -0.095108 -46.560146
vn -0.0000 -0.0000 1.0000
vt 1.000000 0.000000
vt 0.000000 1.000000
vt 0.000000 0.000000
vt 1.000000 1.000000
s 0
usemtl WallPaper.001
f 106/105/27 107/106/27 105/107/27
f 106/105/27 108/108/27 107/106/27
o 平面.027
v -148.615982 19.504892 -46.187843
v -148.615982 -0.095108 -46.187843
v -148.615982 19.504885 -105.657532
v -148.615982 -0.095116 -105.657532
vn 1.0000 -0.0000 -0.0000
vt 1.000000 0.000000
vt 0.000000 1.000000
vt 0.000000 0.000000
vt 1.000000 1.000000
s 0
usemtl WallPaper.001
f 110/109/28 111/110/28 109/111/28
f 110/109/28 112/112/28 111/110/28
o 平面.028
v -207.436966 19.504915 101.670021
v -207.436966 -0.095085 101.670021
v -207.436966 19.504892 -47.109135
v -207.436966 -0.095108 -47.109135
vn 1.0000 -0.0000 -0.0000
vt 1.000000 0.000000
vt 0.000000 1.000000
vt 0.000000 0.000000
vt 1.000000 1.000000
s 0
usemtl WallPaper.001
f 114/113/29 115/114/29 113/115/29
f 114/113/29 116/116/29 115/114/29
o 平面.029
v -207.835007 19.504915 101.070656
v -207.835007 -0.095084 101.070656
v -148.817734 19.504915 101.070656
v -148.817734 -0.095086 101.070656
vn -0.0000 -0.0000 1.0000
vt 0.000000 0.000000
vt 1.000000 0.000000
vt 1.000000 1.000000
vt 0.000000 1.000000
s 0
usemtl WallPaper.001
f 117/117/30 118/118/30 120/119/30 119/120/30
o 平面.030
v -148.877258 19.504923 159.702179
v -148.877258 -0.095076 159.702179
v -148.877258 19.504915 100.866859
v -148.877258 -0.095085 100.866859
vn 1.0000 -0.0000 -0.0000
vt 1.000000 0.000000
vt 0.000000 1.000000
vt 0.000000 0.000000
vt 1.000000 1.000000
s 0
usemtl WallPaper.001
f 122/121/31 123/122/31 121/123/31
f 122/121/31 124/124/31 123/122/31
o 平面.031
v 7.817589 19.504873 -194.200119
v 7.817589 -0.095125 -194.200119
v 214.994049 19.504866 -194.200119
v 214.994049 -0.095134 -194.200119
vn -0.0000 -0.0000 1.0000
vt 1.000000 0.000000
vt 0.000000 1.000000
vt 0.000000 0.000000
vt 1.000000 1.000000
s 0
usemtl WallPaper.001
f 126/125/32 127/126/32 125/127/32
f 126/125/32 128/128/32 127/126/32
o 平面.032
v 7.833490 19.504906 12.689570
v 7.833490 -0.095093 12.689572
v 214.584518 19.504898 12.689570
v 214.584518 -0.095103 12.689572
vn -0.0000 -0.0000 1.0000
vt 1.000000 0.000000
vt 0.000000 1.000000
vt 0.000000 0.000000
vt 1.000000 1.000000
s 0
usemtl WallPaper.001
f 130/129/33 131/130/33 129/131/33
f 130/129/33 132/132/33 131/130/33
o 平面.033
v 8.083626 19.504885 -105.805611
v 8.083626 -0.095116 -105.805611
v 8.083626 19.504869 -194.667267
v 8.083626 -0.095130 -194.667267
vn 1.0000 -0.0000 -0.0000
vt 1.000000 0.000000
vt 0.000000 1.000000
vt 0.000000 0.000000
vt 1.000000 1.000000
s 0
usemtl WallPaper.001
f 134/133/34 135/134/34 133/135/34
f 134/133/34 136/136/34 135/134/34
o 平面.034
v 8.083626 19.504900 12.499307
v 8.083626 -0.095098 12.499309
v 8.083626 19.504889 -75.988426
v 8.083626 -0.095112 -75.988426
vn 1.0000 -0.0000 -0.0000
vt 1.000000 0.000000
vt 0.000000 1.000000
vt 0.000000 0.000000
vt 1.000000 1.000000
s 0
usemtl WallPaper.001
f 138/137/35 139/138/35 137/139/35
f 138/137/35 140/140/35 139/138/35
o 平面.035
v 214.293716 19.504885 -105.804672
v 214.293716 -0.095116 -105.804672
v 214.293716 19.504869 -194.666153
v 214.293716 -0.095130 -194.666153
vn 1.0000 -0.0000 -0.0000
vt 1.000000 0.000000
vt 0.000000 1.000000
vt 0.000000 0.000000
vt 1.000000 1.000000
s 0
usemtl WallPaper.001
f 142/141/36 143/142/36 141/143/36
f 142/141/36 144/144/36 143/142/36
o 平面.036
v 214.317368 19.504900 12.500449
v 214.317368 -0.095098 12.500451
v 214.317368 19.504889 -75.987663
v 214.317368 -0.095112 -75.987663
vn 1.0000 -0.0000 -0.0000
vt 1.000000 0.000000
vt 0.000000 1.000000
vt 0.000000 0.000000
vt 1.000000 1.000000
s 0
usemtl WallPaper.001
f 146/145/37 147/146/37 145/147/37
f 146/145/37 148/148/37 147/146/37
o 平面.037
v -21.128721 -4.204941 158.953323
v -21.128723 -23.804941 158.953323
v -21.128721 -4.204959 40.852909
v -21.128723 -23.804956 40.852909
vn 1.0000 -0.0000 -0.0000
vt 1.000000 0.000000
vt 0.000000 1.000000
vt 0.000000 0.000000
vt 1.000000 1.000000
s 0
usemtl WallPaper.001
f 150/149/38 151/150/38 149/151/38
f 150/149/38 152/152/38 151/150/38
o 平面.038
v 121.266327 -4.204941 159.259186
v 121.266327 -23.804941 159.259186
v 121.266327 -4.204959 41.604328
v 121.266327 -23.804956 41.604328
vn 1.0000 -0.0000 -0.0000
vt 1.000000 0.000000
vt 0.000000 1.000000
vt 0.000000 0.000000
vt 1.000000 1.000000
s 0
usemtl WallPaper.001
f 154/153/39 155/154/39 153/155/39
f 154/153/39 156/156/39 155/154/39
o 平面.039
v -21.084455 -4.204955 41.396011
v -21.084455 -23.804955 41.396011
v 122.359467 -4.204961 41.396011
v 122.359467 -23.804960 41.396011
vn -0.0000 -0.0000 1.0000
vt 1.000000 0.000000
vt 0.000000 1.000000
vt 0.000000 0.000000
vt 1.000000 1.000000
s 0
usemtl WallPaper.001
f 158/157/40 159/158/40 157/159/40
f 158/157/40 160/160/40 159/158/40
o 平面.040
v 27.459272 -5.184588 125.334137
v 27.459272 -24.784590 125.334137
v 27.459272 -5.184595 76.223244
v 27.459272 -24.784595 76.223244
vn 1.0000 -0.0000 -0.0000
vt 1.000000 0.000000
vt 0.000000 1.000000
vt 0.000000 0.000000
vt 1.000000 1.000000
s 0
usemtl WallPaper.001
f 162/161/41 163/162/41 161/163/41
f 162/161/41 164/164/41 163/162/41
o 平面.041
v -21.127926 -4.204938 158.580658
v -21.127926 -23.804939 158.580658
v 121.876869 -4.204944 158.580658
v 121.876869 -23.804945 158.580658
vn -0.0000 -0.0000 1.0000
vt 1.000000 0.000000
vt 0.000000 1.000000
vt 0.000000 0.000000
vt 1.000000 1.000000
s 0
usemtl WallPaper.001
f 166/165/42 167/166/42 165/167/42
f 166/165/42 168/168/42 167/166/42
o 平面.042
v 76.874199 -5.184588 124.870506
v 76.874199 -24.784590 124.870506
v 76.874199 -5.184595 76.686882
v 76.874199 -24.784595 76.686882
vn 1.0000 -0.0000 -0.0000
vt 1.000000 0.000000
vt 0.000000 1.000000
vt 0.000000 0.000000
vt 1.000000 1.000000
s 0
usemtl WallPaper.001
f 170/169/43 171/170/43 169/171/43
f 170/169/43 172/172/43 171/170/43
o 平面.043
v 27.473141 -5.184595 76.333450
v 27.473141 -24.784595 76.333450
v 77.048470 -5.184597 76.333450
v 77.048470 -24.784595 76.333450
vn -0.0000 -0.0000 1.0000
vt 1.000000 0.000000
vt 0.000000 1.000000
vt 0.000000 0.000000
vt 1.000000 1.000000
s 0
usemtl WallPaper.001
f 174/173/44 175/174/44 173/175/44
f 174/173/44 176/176/44 175/174/44
o 平面.044
v 27.289345 -5.362524 124.785233
v 27.289345 -24.606651 124.785233
v 76.838394 -5.362526 124.785233
v 76.838394 -24.606651 124.785233
vn -0.0000 -0.0000 1.0000
vt 1.000000 0.000000
vt 0.000000 1.000000
vt 0.000000 0.000000
vt 1.000000 1.000000
s 0
usemtl WallPaper.001
f 178/177/45 179/178/45 177/179/45
f 178/177/45 180/180/45 179/178/45
o 平面.045
v 101.332596 -5.184587 130.674759
v 101.332596 -24.784590 130.674759
v 101.332596 -5.184596 75.176163
v 101.332596 -24.784595 75.176163
vn 1.0000 -0.0000 -0.0000
vt 1.000000 0.000000
vt 0.000000 1.000000
vt 0.000000 0.000000
vt 1.000000 1.000000
s 0
usemtl WallPaper.001
f 182/181/46 183/182/46 181/183/46
f 182/181/46 184/184/46 183/182/46
o 平面.046
v 100.975296 -5.184596 75.464668
v 100.975296 -24.784595 75.464668
v 120.707993 -5.184596 75.464668
v 120.707993 -24.784595 75.464668
vn -0.0000 -0.0000 1.0000
vt 1.000000 0.000000
vt 0.000000 1.000000
vt 0.000000 0.000000
vt 1.000000 1.000000
s 0
usemtl WallPaper.001
f 186/185/47 187/186/47 185/187/47
f 186/185/47 188/188/47 187/186/47
o 平面.047
v 26.403889 -29.389864 124.785233
v 26.403889 -48.989864 124.785240
v 76.869232 -29.389864 124.785233
v 76.869232 -48.989864 124.785240
vn -0.0000 -0.0000 1.0000
vt 1.000000 0.000000
vt 0.000000 1.000000
vt 0.000000 0.000000
vt 1.000000 1.000000
s 0
usemtl WallPaper.001
f 190/189/48 191/190/48 189/191/48
f 190/189/48 192/192/48 191/190/48
o 平面.048
v 26.403889 -29.389872 76.333450
v 26.403889 -48.989872 76.333450
v 76.869232 -29.389872 76.333450
v 76.869232 -48.989872 76.333450
vn -0.0000 -0.0000 1.0000
vt 1.000000 0.000000
vt 0.000000 1.000000
vt 0.000000 0.000000
vt 1.000000 1.000000
s 0
usemtl WallPaper.001
f 194/193/49 195/194/49 193/195/49
f 194/193/49 196/196/49 195/194/49
o 平面.049
v 76.874199 -29.389864 125.179390
v 76.874199 -48.989864 125.179398
v 76.874199 -29.389872 76.377991
v 76.874199 -48.989872 76.377991
vn 1.0000 -0.0000 -0.0000
vt 1.000000 0.000000
vt 0.000000 1.000000
vt 0.000000 0.000000
vt 1.000000 1.000000
s 0
usemtl WallPaper.001
f 198/197/50 199/198/50 197/199/50
f 198/197/50 200/200/50 199/198/50
o 平面.050
v 27.459272 -29.389864 124.870079
v 27.459272 -48.989864 124.870079
v 27.459272 -29.389872 76.687294
v 27.459272 -48.989872 76.687294
vn 1.0000 -0.0000 -0.0000
vt 1.000000 0.000000
vt 0.000000 1.000000
vt 0.000000 0.000000
vt 1.000000 1.000000
s 0
usemtl WallPaper.001
f 202/201/51 203/202/51 201/203/51
f 202/201/51 204/204/51 203/202/51
o 平面.051
v 125.411903 -29.389860 159.555603
v 125.411903 -48.989857 159.555603
v 125.411903 -29.389896 -85.788704
v 125.411903 -48.989899 -85.788704
vn 1.0000 -0.0000 -0.0000
vt 1.000000 0.000000
vt 0.000000 1.000000
vt 0.000000 0.000000
vt 1.000000 1.000000
s 0
usemtl WallPaper.001
f 206/205/52 207/206/52 205/207/52
f 206/205/52 208/208/52 207/206/52
o 平面.052
v -21.266371 -29.389860 159.330444
v -21.266371 -48.989857 159.330444
v -21.266371 -29.389875 40.847046
v -21.266371 -48.989876 40.847046
vn 1.0000 -0.0000 -0.0000
vt 1.000000 0.000000
vt 0.000000 1.000000
vt 0.000000 0.000000
vt 1.000000 1.000000
s 0
usemtl WallPaper.001
f 210/209/53 211/210/53 209/211/53
f 210/209/53 212/212/53 211/210/53
o 平面.053
v -21.387896 -29.389854 159.348969
v -21.387896 -48.989853 159.348969
v 127.259903 -29.389862 159.348984
v 127.259903 -48.989861 159.348984
vn -0.0000 -0.0000 1.0000
vt 1.000000 0.000000
vt 0.000000 1.000000
vt 0.000000 0.000000
vt 1.000000 1.000000
s 0
usemtl WallPaper.001
f 214/213/54 215/214/54 213/215/54
f 214/213/54 216/216/54 215/214/54
o 平面.054
v 2.595490 -29.389896 -85.594032
v 2.595490 -48.989899 -85.594032
v 59.470028 -29.389896 -85.594032
v 59.470028 -48.989899 -85.594032
vn -0.0000 -0.0000 1.0000
vt 1.000000 0.000000
vt 0.000000 1.000000
vt 0.000000 0.000000
vt 1.000000 1.000000
s 0
usemtl WallPaper.001
f 218/217/55 219/218/55 217/219/55
f 218/217/55 220/220/55 219/218/55
o 平面.056
v 84.119759 -29.389896 -85.594032
v 84.119759 -48.989899 -85.594032
v 127.082596 -29.389896 -85.594032
v 127.082596 -48.989899 -85.594032
vn -0.0000 -0.0000 1.0000
vt 1.000000 0.000000
vt 0.000000 1.000000
vt 0.000000 0.000000
vt 1.000000 1.000000
s 0
usemtl WallPaper.001
f 222/221/56 223/222/56 221/223/56
f 222/221/56 224/224/56 223/222/56
o 平面.057
v 56.916409 -29.389902 -124.837845
v 56.916409 -48.989899 -124.837845
v 86.207268 -29.389902 -124.837845
v 86.207268 -48.989899 -124.837845
vn -0.0000 -0.0000 1.0000
vt 1.000000 0.000000
vt 0.000000 1.000000
vt 0.000000 0.000000
vt 1.000000 1.000000
s 0
usemtl WallPaper.001
f 226/225/57 227/226/57 225/227/57
f 226/225/57 228/228/57 227/226/57
o 平面.058
v 57.165344 -29.389896 -85.565788
v 57.165344 -48.989899 -85.565788
v 57.165344 -29.389902 -125.087852
v 57.165344 -48.989899 -125.087852
vn 1.0000 -0.0000 -0.0000
vt 1.000000 0.000000
vt 0.000000 1.000000
vt 0.000000 0.000000
vt 1.000000 1.000000
s 0
usemtl WallPaper.001
f 230/229/58 231/230/58 229/231/58
f 230/229/58 232/232/58 231/230/58
o 平面.059
v 86.003326 -29.389896 -85.669487
v 86.003326 -48.989899 -85.669487
v 86.003326 -29.389902 -124.680901
v 86.003326 -48.989899 -124.680901
vn 1.0000 -0.0000 -0.0000
vt 1.000000 0.000000
vt 0.000000 1.000000
vt 0.000000 0.000000
vt 1.000000 1.000000
s 0
usemtl WallPaper.001
f 234/233/59 235/234/59 233/235/59
f 234/233/59 236/236/59 235/234/59
o 平面.061
v 18.219790 -29.389875 40.855003
v 18.219790 -48.989876 40.855003
v 18.219790 -29.389896 -85.940742
v 18.219790 -48.989899 -85.940742
vn 1.0000 -0.0000 -0.0000
vt 1.000000 0.000000
vt 0.000000 1.000000
vt 0.000000 0.000000
vt 1.000000 1.000000
s 0
usemtl WallPaper.001
f 238/237/60 239/238/60 237/239/60
f 238/237/60 240/240/60 239/238/60
o 平面.064
v -23.234337 -29.389875 41.183483
v -23.234337 -48.989876 41.183483
v 18.183800 -29.389875 41.183483
v 18.183800 -48.989876 41.183483
vn -0.0000 -0.0000 1.0000
vt 1.000000 0.000000
vt 0.000000 1.000000
vt 0.000000 0.000000
vt 1.000000 1.000000
s 0
usemtl WallPaper.001
f 242/241/61 243/242/61 241/243/61
f 242/241/61 244/244/61 243/242/61
o 平面.065
v -149.786728 -0.000025 -75.623558
v 8.535563 -0.000025 -75.623558
v -149.786728 -0.000030 -105.707710
v 8.535563 -0.000030 -105.707710
vn -0.0000 1.0000 -0.0000
vt 1.000000 0.000000
vt 0.000000 1.000000
vt 0.000000 0.000000
vt 1.000000 1.000000
s 0
usemtl マテリアル.001
f 246/245/62 247/246/62 245/247/62
f 246/245/62 248/248/62 247/246/62
o 平面.066
v -149.071579 0.000010 159.867065
v 9.250730 0.000010 159.867065
v -149.071579 0.000006 129.782944
v 9.250730 0.000006 129.782944
vn -0.0000 1.0000 -0.0000
vt 1.000000 0.000000
vt 0.000000 1.000000
vt 0.000000 0.000000
vt 1.000000 1.000000
s 0
usemtl マテリアル.001
f 250/249/63 251/250/63 249/251/63
f 250/249/63 252/252/63 251/250/63
o 平面.067
v -119.135284 0.000006 129.913681
v -119.135300 -0.000025 -76.012444
v -149.219421 0.000006 129.913681
v -149.219421 -0.000025 -76.012444
vn -0.0000 1.0000 -0.0000
vt 1.000000 0.000000
vt 0.000000 1.000000
vt 0.000000 0.000000
vt 1.000000 1.000000
s 0
usemtl マテリアル.001
f 254/253/64 255/254/64 253/255/64
f 254/253/64 256/256/64 255/254/64
o 平面.068
v -21.818129 0.000007 134.859985
v 96.871811 0.000007 134.859985
v -21.818129 0.000001 99.195198
v 96.871811 0.000001 99.195198
vn -0.0000 1.0000 -0.0000
vt 1.000000 0.000000
vt 0.000000 1.000000
vt 0.000000 0.000000
vt 1.000000 1.000000
s 0
usemtl マテリアル.001
f 258/257/65 259/258/65 257/259/65
f 258/257/65 260/260/65 259/258/65
