# Blender 4.0.0
# www.blender.org
mtllib stage2.mtl
o 床
v -192.293625 11.639467 191.057816
v 187.055374 11.639467 191.057816
v -192.293625 11.639467 -188.291183
v 187.055374 11.639467 -188.291183
vn -0.0000 1.0000 -0.0000
vt 1.000000 0.000000
vt 0.000000 1.000000
vt 0.000000 0.000000
vt 1.000000 1.000000
s 0
usemtl 床
f 2/1/1 3/2/1 1/3/1
f 2/1/1 4/4/1 3/2/1
o 壁①
v 179.052277 11.891397 183.900528
v 179.052277 35.970272 183.900528
v 179.052277 11.891397 -180.901443
v 179.052277 35.970272 -180.901443
vn -1.0000 -0.0000 -0.0000
vt 0.625000 0.000000
vt 0.375000 0.250000
vt 0.375000 0.000000
vt 0.625000 0.250000
s 0
usemtl 壁
f 6/5/2 7/6/2 5/7/2
f 6/5/2 8/8/2 7/6/2
o 壁②
v -144.484543 11.891397 183.900528
v -144.484543 35.970272 183.900528
v -144.484543 11.891397 -180.901443
v -144.484543 35.970272 -180.901443
vn 1.0000 -0.0000 -0.0000
vt 0.625000 0.500000
vt 0.375000 0.750000
vt 0.375000 0.500000
vt 0.625000 0.750000
s 0
usemtl 壁
f 12/9/3 9/10/3 11/11/3
f 12/9/3 10/12/3 9/10/3
o 壁③
v 179.781860 11.891397 -138.998245
v 179.781860 35.970272 -138.998245
v -185.020111 11.891397 -138.998230
v -185.020111 35.970272 -138.998230
vn -0.0000 -0.0000 1.0000
vt 0.625000 0.000000
vt 0.375000 0.250000
vt 0.375000 0.000000
vt 0.625000 0.250000
s 0
usemtl 壁
f 14/13/4 15/14/4 13/15/4
f 14/13/4 16/16/4 15/14/4
o 壁④
v 179.781860 11.891397 183.170929
v 179.781860 35.970272 183.170929
v -185.020111 11.891397 183.170944
v -185.020111 35.970272 183.170944
vn -0.0000 -0.0000 -1.0000
vt 0.625000 0.500000
vt 0.375000 0.750000
vt 0.375000 0.500000
vt 0.625000 0.750000
s 0
usemtl 壁
f 20/17/5 17/18/5 19/19/5
f 20/17/5 18/20/5 17/18/5
o 立方体.002
v 131.800247 11.891397 18.480118
v 131.800247 35.970272 18.480118
v 160.471207 11.891397 18.480118
v 160.471207 35.970272 18.480118
v 131.800247 11.891397 25.569206
v 131.800247 35.970272 25.569206
v 160.471207 11.891397 25.569206
v 160.471207 35.970272 25.569206
vn -0.0000 -0.0000 -1.0000
vn 1.0000 -0.0000 -0.0000
vn -0.0000 -0.0000 1.0000
vn -1.0000 -0.0000 -0.0000
vn -0.0000 -1.0000 -0.0000
vn -0.0000 1.0000 -0.0000
vt 0.625000 0.000000
vt 0.375000 0.250000
vt 0.375000 0.000000
vt 0.625000 0.250000
vt 0.375000 0.500000
vt 0.625000 0.500000
vt 0.375000 0.750000
vt 0.625000 0.750000
vt 0.375000 1.000000
vt 0.125000 0.750000
vt 0.125000 0.500000
vt 0.875000 0.500000
vt 0.625000 1.000000
vt 0.875000 0.750000
s 0
usemtl 壁
f 22/21/6 23/22/6 21/23/6
f 24/24/7 27/25/7 23/22/7
f 28/26/8 25/27/8 27/25/8
f 26/28/9 21/29/9 25/27/9
f 27/25/10 21/30/10 23/31/10
f 24/32/11 26/28/11 28/26/11
f 22/21/6 24/24/6 23/22/6
f 24/24/7 28/26/7 27/25/7
f 28/26/8 26/28/8 25/27/8
f 26/28/9 22/33/9 21/29/9
f 27/25/10 25/27/10 21/30/10
f 24/32/11 22/34/11 26/28/11
o 壁②.001
v -54.268250 11.891397 93.505981
v -54.268250 35.970272 93.505981
v -54.268250 11.891397 -111.229034
v -54.268250 35.970272 -111.229034
v -52.268250 11.891397 93.505981
v -52.268250 35.970272 93.505981
v -52.268250 11.891397 -111.229034
v -52.268250 35.970272 -111.229034
vn -1.0000 -0.0000 -0.0000
vn 1.0000 -0.0000 -0.0000
vt 0.625000 0.000000
vt 0.375000 0.250000
vt 0.375000 0.000000
vt 0.625000 0.500000
vt 0.375000 0.750000
vt 0.375000 0.500000
vt 0.625000 0.250000
vt 0.625000 0.750000
s 0
usemtl 壁
f 30/35/12 31/36/12 29/37/12
f 36/38/13 33/39/13 35/40/13
f 30/35/12 32/41/12 31/36/12
f 36/38/13 34/42/13 33/39/13
o 壁①.001
v 121.251694 11.891397 182.832321
v 121.251694 35.970272 182.832321
v 121.251694 11.891397 92.669266
v 121.251694 35.970272 92.669266
v 123.251694 11.891397 182.832321
v 123.251694 35.970272 182.832321
v 123.251694 11.891397 92.669266
v 123.251694 35.970272 92.669266
vn -1.0000 -0.0000 -0.0000
vn 1.0000 -0.0000 -0.0000
vt 0.625000 0.000000
vt 0.375000 0.250000
vt 0.375000 0.000000
vt 0.625000 0.500000
vt 0.375000 0.750000
vt 0.375000 0.500000
vt 0.625000 0.250000
vt 0.625000 0.750000
s 0
usemtl 壁
f 38/43/14 39/44/14 37/45/14
f 44/46/15 41/47/15 43/48/15
f 38/43/14 40/49/14 39/44/14
f 44/46/15 42/50/15 41/47/15
o 壁④.004
v -97.718628 11.891397 -44.171551
v -97.718628 35.970272 -44.171551
v 43.104584 11.891397 -45.871262
v 43.104584 35.970272 -45.871262
v -97.694489 11.891397 -42.171700
v -97.694489 35.970272 -42.171700
v 43.128723 11.891397 -43.871410
v 43.128723 35.970272 -43.871410
vn -0.0121 -0.0000 -0.9999
vn 0.0121 -0.0000 0.9999
vt 0.625000 0.000000
vt 0.375000 0.250000
vt 0.375000 0.000000
vt 0.625000 0.500000
vt 0.375000 0.750000
vt 0.375000 0.500000
vt 0.625000 0.250000
vt 0.625000 0.750000
s 0
usemtl 壁
f 46/51/16 47/52/16 45/53/16
f 52/54/17 49/55/17 51/56/17
f 46/51/16 48/57/16 47/52/16
f 52/54/17 50/58/17 49/55/17
o 壁④.005
v 52.207874 11.891397 -46.127747
v 52.207874 35.970272 -46.127747
v 179.077621 11.891397 -47.659042
v 179.077621 35.970272 -47.659042
v 52.232014 11.891397 -44.128052
v 52.232014 35.970272 -44.128052
v 179.101761 11.891397 -45.659348
v 179.101761 35.970272 -45.659348
vn -0.0121 -0.0000 -0.9999
vn 0.0121 -0.0000 0.9999
vt 0.625000 0.000000
vt 0.375000 0.250000
vt 0.375000 0.000000
vt 0.625000 0.500000
vt 0.375000 0.750000
vt 0.375000 0.500000
vt 0.625000 0.250000
vt 0.625000 0.750000
s 0
usemtl 壁
f 54/59/18 55/60/18 53/61/18
f 60/62/19 57/63/19 59/64/19
f 54/59/18 56/65/18 55/60/18
f 60/62/19 58/66/19 57/63/19
o 壁④.006
v 42.861992 29.598957 -45.931751
v 42.861992 35.955929 -45.931751
v 52.395367 29.598957 -46.046818
v 52.395367 35.955929 -46.046818
v 42.886127 29.598957 -43.931896
v 42.886127 35.955929 -43.931896
v 52.419502 29.598957 -44.046963
v 52.419502 35.955929 -44.046963
vn -0.0121 -0.0000 -0.9999
vn 0.0121 -0.0000 0.9999
vt 0.625000 0.000000
vt 0.375000 0.250000
vt 0.375000 0.000000
vt 0.625000 0.500000
vt 0.375000 0.750000
vt 0.375000 0.500000
vt 0.625000 0.250000
vt 0.625000 0.750000
s 0
usemtl 壁
f 62/67/20 63/68/20 61/69/20
f 68/70/21 65/71/21 67/72/21
f 62/67/20 64/73/20 63/68/20
f 68/70/21 66/74/21 65/71/21
o 壁④.007
v -185.174713 11.891397 -81.812012
v -185.174713 35.970272 -81.812012
v -93.681473 11.891397 -82.916313
v -93.681473 35.970272 -82.916313
v -185.165848 11.891397 -81.078194
v -185.165848 35.970272 -81.078194
v -93.672615 11.891397 -82.182495
v -93.672615 35.970272 -82.182495
vn -0.0121 -0.0000 -0.9999
vn 0.0121 -0.0000 0.9999
vt 0.625000 0.000000
vt 0.375000 0.250000
vt 0.375000 0.000000
vt 0.625000 0.500000
vt 0.375000 0.750000
vt 0.375000 0.500000
vt 0.625000 0.250000
vt 0.625000 0.750000
s 0
usemtl 壁
f 70/75/22 71/76/22 69/77/22
f 76/78/23 73/79/23 75/80/23
f 70/75/22 72/81/22 71/76/22
f 76/78/23 74/82/23 73/79/23
o 壁②.002
v -54.268250 11.891397 -120.082184
v -54.268250 35.970272 -120.082184
v -54.268250 11.891397 -276.686005
v -54.268250 35.970272 -276.686005
v -52.268250 11.891397 -120.082184
v -52.268250 35.970272 -120.082184
v -52.268250 11.891397 -276.686005
v -52.268250 35.970272 -276.686005
vn -1.0000 -0.0000 -0.0000
vn 1.0000 -0.0000 -0.0000
vt 0.625000 0.000000
vt 0.375000 0.250000
vt 0.375000 0.000000
vt 0.625000 0.500000
vt 0.375000 0.750000
vt 0.375000 0.500000
vt 0.625000 0.250000
vt 0.625000 0.750000
s 0
usemtl 壁
f 78/83/24 79/84/24 77/85/24
f 84/86/25 81/87/25 83/88/25
f 78/83/24 80/89/24 79/84/24
f 84/86/25 82/90/25 81/87/25
o 壁④.008
v -52.209969 29.598957 -120.462227
v -52.209969 35.955929 -120.462227
v -52.209969 29.598957 -110.928154
v -52.209969 35.955929 -110.928154
v -54.209969 29.598957 -120.462227
v -54.209969 35.955929 -120.462227
v -54.209969 29.598957 -110.928154
v -54.209969 35.955929 -110.928154
vn 1.0000 -0.0000 -0.0000
vn -1.0000 -0.0000 -0.0000
vt 0.625000 0.000000
vt 0.375000 0.250000
vt 0.375000 0.000000
vt 0.625000 0.500000
vt 0.375000 0.750000
vt 0.375000 0.500000
vt 0.625000 0.250000
vt 0.625000 0.750000
s 0
usemtl 壁
f 86/91/26 87/92/26 85/93/26
f 92/94/27 89/95/27 91/96/27
f 86/91/26 88/97/26 87/92/26
f 92/94/27 90/98/27 89/95/27
o 立方体.001
v -55.097580 11.891397 133.290710
v -55.097580 35.970272 133.290710
v -50.073517 11.891397 133.290710
v -50.073517 35.970272 133.290710
v -55.097580 11.891397 183.966919
v -55.097580 35.970272 183.966919
v -50.073517 11.891397 183.966919
v -50.073517 35.970272 183.966919
vn -0.0000 -0.0000 -1.0000
vn 1.0000 -0.0000 -0.0000
vn -0.0000 -0.0000 1.0000
vn -1.0000 -0.0000 -0.0000
vn -0.0000 -1.0000 -0.0000
vn -0.0000 1.0000 -0.0000
vt 0.625000 0.000000
vt 0.375000 0.250000
vt 0.375000 0.000000
vt 0.625000 0.250000
vt 0.375000 0.500000
vt 0.625000 0.500000
vt 0.375000 0.750000
vt 0.625000 0.750000
vt 0.375000 1.000000
vt 0.125000 0.750000
vt 0.125000 0.500000
vt 0.875000 0.500000
vt 0.625000 1.000000
vt 0.875000 0.750000
s 0
usemtl 壁
f 94/99/28 95/100/28 93/101/28
f 96/102/29 99/103/29 95/100/29
f 100/104/30 97/105/30 99/103/30
f 98/106/31 93/107/31 97/105/31
f 99/103/32 93/108/32 95/109/32
f 96/110/33 98/106/33 100/104/33
f 94/99/28 96/102/28 95/100/28
f 96/102/29 100/104/29 99/103/29
f 100/104/30 98/106/30 97/105/30
f 98/106/31 94/111/31 93/107/31
f 99/103/32 97/105/32 93/108/32
f 96/110/33 94/112/33 98/106/33
o 立方体.004
v 12.805449 11.891397 94.440323
v 12.805449 35.970272 94.440323
v 19.041090 11.891397 94.440323
v 19.041090 35.970272 94.440323
v 12.805446 11.891397 155.247864
v 12.805446 35.970272 155.247864
v 19.041086 11.891397 155.247864
v 19.041086 35.970272 155.247864
vn -0.0000 -0.0000 -1.0000
vn 1.0000 -0.0000 -0.0000
vn -0.0000 -0.0000 1.0000
vn -1.0000 -0.0000 -0.0000
vn -0.0000 -1.0000 -0.0000
vn -0.0000 1.0000 -0.0000
vt 0.625000 0.000000
vt 0.375000 0.250000
vt 0.375000 0.000000
vt 0.625000 0.250000
vt 0.375000 0.500000
vt 0.625000 0.500000
vt 0.375000 0.750000
vt 0.625000 0.750000
vt 0.375000 1.000000
vt 0.125000 0.750000
vt 0.125000 0.500000
vt 0.875000 0.500000
vt 0.625000 1.000000
vt 0.875000 0.750000
s 0
usemtl 壁
f 102/113/34 103/114/34 101/115/34
f 104/116/35 107/117/35 103/114/35
f 108/118/36 105/119/36 107/117/36
f 106/120/37 101/121/37 105/119/37
f 107/117/38 101/122/38 103/123/38
f 104/124/39 106/120/39 108/118/39
f 102/113/34 104/116/34 103/114/34
f 104/116/35 108/118/35 107/117/35
f 108/118/36 106/120/36 105/119/36
f 106/120/37 102/125/37 101/121/37
f 107/117/38 105/119/38 101/122/38
f 104/124/39 102/126/39 106/120/39
o 壁①.002
v 110.436127 11.891397 93.331573
v 110.436127 35.970272 93.331573
v 110.436127 11.891397 -2.378151
v 110.436127 35.970272 -2.378151
v 112.436127 11.891397 93.331573
v 112.436127 35.970272 93.331573
v 112.436127 11.891397 -2.378151
v 112.436127 35.970272 -2.378151
vn -1.0000 -0.0000 -0.0000
vn 1.0000 -0.0000 -0.0000
vt 0.625000 0.000000
vt 0.375000 0.250000
vt 0.375000 0.000000
vt 0.625000 0.500000
vt 0.375000 0.750000
vt 0.375000 0.500000
vt 0.625000 0.250000
vt 0.625000 0.750000
s 0
usemtl 壁
f 110/127/40 111/128/40 109/129/40
f 116/130/41 113/131/41 115/132/41
f 110/127/40 112/133/40 111/128/40
f 116/130/41 114/134/41 113/131/41
o 壁①.003
v 7.273645 11.891397 -74.152252
v 7.273645 35.970272 -74.152252
v 7.273645 11.891397 -215.720551
v 7.273645 35.970272 -215.720551
v 9.273645 11.891397 -74.152252
v 9.273645 35.970272 -74.152252
v 9.273645 11.891397 -215.720551
v 9.273645 35.970272 -215.720551
vn -1.0000 -0.0000 -0.0000
vn 1.0000 -0.0000 -0.0000
vt 0.625000 0.000000
vt 0.375000 0.250000
vt 0.375000 0.000000
vt 0.625000 0.500000
vt 0.375000 0.750000
vt 0.375000 0.500000
vt 0.625000 0.250000
vt 0.625000 0.750000
s 0
usemtl 壁
f 118/135/42 119/136/42 117/137/42
f 124/138/43 121/139/43 123/140/43
f 118/135/42 120/141/42 119/136/42
f 124/138/43 122/142/43 121/139/43
o 立方体
v -17.740122 -7.191557 -92.021751
v -17.740122 7.191557 -92.021751
v -17.740122 -7.191557 -95.775948
v -17.740122 7.191557 -95.775948
v -13.650993 -7.191557 -92.021751
v -13.650993 7.191557 -92.021751
v -13.650993 -7.191557 -95.775948
v -13.650993 7.191557 -95.775948
vn -1.0000 -0.0000 -0.0000
vn -0.0000 -0.0000 -1.0000
vn 1.0000 -0.0000 -0.0000
vn -0.0000 -0.0000 1.0000
vn -0.0000 -1.0000 -0.0000
vn -0.0000 1.0000 -0.0000
vt 0.375000 0.000000
vt 0.625000 0.000000
vt 0.625000 0.250000
vt 0.375000 0.250000
vt 0.625000 0.500000
vt 0.375000 0.500000
vt 0.625000 0.750000
vt 0.375000 0.750000
vt 0.625000 1.000000
vt 0.375000 1.000000
vt 0.125000 0.500000
vt 0.125000 0.750000
vt 0.875000 0.500000
vt 0.875000 0.750000
s 0
f 125/143/44 126/144/44 128/145/44 127/146/44
f 127/146/45 128/145/45 132/147/45 131/148/45
f 131/148/46 132/147/46 130/149/46 129/150/46
f 129/150/47 130/149/47 126/151/47 125/152/47
f 127/153/48 131/148/48 129/150/48 125/154/48
f 132/147/49 128/155/49 126/156/49 130/149/49
o 壁①.004
v 85.630669 11.891397 -44.318485
v 85.630669 35.970272 -44.318485
v 85.630669 11.891397 -140.028214
v 85.630669 35.970272 -140.028214
v 87.630669 11.891397 -44.318485
v 87.630669 35.970272 -44.318485
v 87.630669 11.891397 -140.028214
v 87.630669 35.970272 -140.028214
vn -1.0000 -0.0000 -0.0000
vn 1.0000 -0.0000 -0.0000
vt 0.625000 0.000000
vt 0.375000 0.250000
vt 0.375000 0.000000
vt 0.625000 0.500000
vt 0.375000 0.750000
vt 0.375000 0.500000
vt 0.625000 0.250000
vt 0.625000 0.750000
s 0
usemtl 壁
f 134/157/50 135/158/50 133/159/50
f 140/160/51 137/161/51 139/162/51
f 134/157/50 136/163/50 135/158/50
f 140/160/51 138/164/51 137/161/51
o 壁④.001
v -97.718628 11.891397 94.516632
v -97.718628 35.970272 94.516632
v 43.104584 11.891397 92.816917
v 43.104584 35.970272 92.816917
v -97.694489 11.891397 96.516487
v -97.694489 35.970272 96.516487
v 43.128723 11.891397 94.816772
v 43.128723 35.970272 94.816772
vn -0.0121 -0.0000 -0.9999
vn 0.0121 -0.0000 0.9999
vt 0.625000 0.000000
vt 0.375000 0.250000
vt 0.375000 0.000000
vt 0.625000 0.500000
vt 0.375000 0.750000
vt 0.375000 0.500000
vt 0.625000 0.250000
vt 0.625000 0.750000
s 0
usemtl 壁
f 142/165/52 143/166/52 141/167/52
f 148/168/53 145/169/53 147/170/53
f 142/165/52 144/171/52 143/166/52
f 148/168/53 146/172/53 145/169/53
o 壁④.003
v 52.197327 11.891397 92.717064
v 52.197327 35.970272 92.717064
v 149.335297 11.891397 91.544632
v 149.335297 35.970272 91.544632
v 52.221458 11.891397 94.716675
v 52.221458 35.970272 94.716675
v 149.359436 11.891397 93.544243
v 149.359436 35.970272 93.544243
vn -0.0121 -0.0000 -0.9999
vn 0.0121 -0.0000 0.9999
vt 0.625000 0.000000
vt 0.375000 0.250000
vt 0.375000 0.000000
vt 0.625000 0.500000
vt 0.375000 0.750000
vt 0.375000 0.500000
vt 0.625000 0.250000
vt 0.625000 0.750000
s 0
usemtl 壁
f 150/173/54 151/174/54 149/175/54
f 156/176/55 153/177/55 155/178/55
f 150/173/54 152/179/54 151/174/54
f 156/176/55 154/180/55 153/177/55
o 壁④.009
v 42.861992 29.598957 92.756432
v 42.861992 35.955929 92.756432
v 52.395367 29.598957 92.641365
v 52.395367 35.955929 92.641365
v 42.886127 29.598957 94.756279
v 42.886127 35.955929 94.756279
v 52.419502 29.598957 94.641212
v 52.419502 35.955929 94.641212
vn -0.0121 -0.0000 -0.9999
vn 0.0121 -0.0000 0.9999
vt 0.625000 0.000000
vt 0.375000 0.250000
vt 0.375000 0.000000
vt 0.625000 0.500000
vt 0.375000 0.750000
vt 0.375000 0.500000
vt 0.625000 0.250000
vt 0.625000 0.750000
s 0
usemtl 壁
f 158/181/56 159/182/56 157/183/56
f 164/184/57 161/185/57 163/186/57
f 158/181/56 160/187/56 159/182/56
f 164/184/57 162/188/57 161/185/57
o 立方体.003
v -5.352878 11.891397 -7.440346
v -5.352878 35.970272 -7.440346
v -0.328813 11.891397 -7.440346
v -0.328813 35.970272 -7.440346
v -5.352880 11.891397 54.081333
v -5.352880 35.970272 54.081333
v -0.328816 11.891397 54.081333
v -0.328816 35.970272 54.081333
vn -0.0000 -0.0000 -1.0000
vn 1.0000 -0.0000 -0.0000
vn -0.0000 -0.0000 1.0000
vn -1.0000 -0.0000 -0.0000
vn -0.0000 -1.0000 -0.0000
vn -0.0000 1.0000 -0.0000
vt 0.625000 0.000000
vt 0.375000 0.250000
vt 0.375000 0.000000
vt 0.625000 0.250000
vt 0.375000 0.500000
vt 0.625000 0.500000
vt 0.375000 0.750000
vt 0.625000 0.750000
vt 0.375000 1.000000
vt 0.125000 0.750000
vt 0.125000 0.500000
vt 0.875000 0.500000
vt 0.625000 1.000000
vt 0.875000 0.750000
s 0
usemtl 壁
f 166/189/58 167/190/58 165/191/58
f 168/192/59 171/193/59 167/190/59
f 172/194/60 169/195/60 171/193/60
f 170/196/61 165/197/61 169/195/61
f 171/193/62 165/198/62 167/199/62
f 168/200/63 170/196/63 172/194/63
f 166/189/58 168/192/58 167/190/58
f 168/192/59 172/194/59 171/193/59
f 172/194/60 170/196/60 169/195/60
f 170/196/61 166/201/61 165/197/61
f 171/193/62 169/195/62 165/198/62
f 168/200/63 166/202/63 170/196/63
o 立方体.006
v -109.534698 11.891397 -7.440346
v -109.534698 35.970272 -7.440346
v -87.773056 11.891397 -7.440346
v -87.773056 35.970272 -7.440346
v -109.534698 11.891397 54.081333
v -109.534698 35.970272 54.081333
v -87.773056 11.891397 54.081333
v -87.773056 35.970272 54.081333
vn -0.0000 -0.0000 -1.0000
vn 1.0000 -0.0000 -0.0000
vn -0.0000 -0.0000 1.0000
vn -1.0000 -0.0000 -0.0000
vn -0.0000 -1.0000 -0.0000
vn -0.0000 1.0000 -0.0000
vt 0.625000 0.000000
vt 0.375000 0.250000
vt 0.375000 0.000000
vt 0.625000 0.250000
vt 0.375000 0.500000
vt 0.625000 0.500000
vt 0.375000 0.750000
vt 0.625000 0.750000
vt 0.375000 1.000000
vt 0.125000 0.750000
vt 0.125000 0.500000
vt 0.875000 0.500000
vt 0.625000 1.000000
vt 0.875000 0.750000
s 0
usemtl 壁
f 174/203/64 175/204/64 173/205/64
f 176/206/65 179/207/65 175/204/65
f 180/208/66 177/209/66 179/207/66
f 178/210/67 173/211/67 177/209/67
f 179/207/68 173/212/68 175/213/68
f 176/214/69 178/210/69 180/208/69
f 174/203/64 176/206/64 175/204/64
f 176/206/65 180/208/65 179/207/65
f 180/208/66 178/210/66 177/209/66
f 178/210/67 174/215/67 173/211/67
f 179/207/68 177/209/68 173/212/68
f 176/214/69 174/216/69 178/210/69
